<?xml version="1.0" encoding="utf-8"?>
<!-- Generator: Adobe Illustrator 24.1.0, SVG Export Plug-In . SVG Version: 6.00 Build 0)  -->
<svg version="1.1" id="Layer_1" xmlns="http://www.w3.org/2000/svg" xmlns:xlink="http://www.w3.org/1999/xlink" x="0px" y="0px"
	 viewBox="0 0 413.8 75.9" style="enable-background:new 0 0 413.8 75.9;" xml:space="preserve">
<style type="text/css">
	.st0{fill:#FFFFFF;}
</style>
<g>
	<g>
		<g>
			<path class="st0" d="M34.5,0L0,25.9v50h22.5c1.2,0,2.2-1,2.2-2.1c0-1.2-1-2.1-2.2-2.1h-18V28l30-22.6l30,22.6v43.6H37.6v-7.3
				c4-0.1,7.1-1,9.3-2.6c2.3-1.7,3.5-4.3,3.5-7.6c0-1.3-0.3-2.6-0.8-3.7c-0.5-1.1-1.3-2.1-2.3-2.9c-1-0.8-2.3-1.3-3.7-1.6l-0.9-0.2
				l0.8-0.3c1.7-0.6,3.1-1.6,4-2.8c0.9-1.3,1.4-2.7,1.4-4.3c0-3.2-1.2-5.6-3.6-7.2c-2-1.3-4.6-2.1-7.8-2.3v-7.5c0-1.2-1-2.1-2.2-2.1
				c-1.2,0-2.2,1-2.2,2.1v7.4H18.6v3.6l4.1,0.7v27l-4.1,0.7v3.6h14.6v11.6h35.8v-50L34.5,0z M43.1,50.8c0.4,0.9,0.6,2,0.6,3.2
				c0,1.8-0.6,3.2-1.8,4.1c-1.1,0.8-2.5,1.3-4.4,1.4V48h0c1.4,0,2.6,0.2,3.5,0.7C42,49.2,42.7,49.9,43.1,50.8z M40.5,34.6
				c1.2,0.9,1.8,2.2,1.8,4.1c0,1.6-0.6,2.9-1.8,3.8c-0.8,0.6-1.8,1-3,1.2V33.4C38.8,33.6,39.8,34,40.5,34.6z M29.3,33.3h3.8v10.5
				h-3.8V33.3z M29.3,59.6V48h3.8v11.5H29.3z"/>
		</g>
	</g>
	<g>
		<g>
			<path class="st0" d="M86.7,67.8v-3.6l3.5-0.7V40.1l-3.5-0.7v-3.6h12.9v3.6l-3.5,0.7v9.6h13.5v-9.6l-3.4-0.7v-3.6h3.4h6h3.5v3.6
				l-3.5,0.7v23.4l3.5,0.7v3.6h-12.9v-3.6l3.4-0.7v-9.2H96.1v9.2l3.5,0.7v3.6H86.7z"/>
		</g>
		<g>
			<path class="st0" d="M133,68.3c-2.3,0-4.3-0.5-6-1.5c-1.7-1-2.9-2.4-3.8-4.3c-0.9-1.8-1.3-3.9-1.3-6.3v-0.5
				c0-2.4,0.4-4.4,1.3-6.3s2.2-3.2,3.8-4.3c1.7-1,3.6-1.6,5.9-1.6c2.3,0,4.3,0.5,6,1.5c1.7,1,2.9,2.5,3.8,4.3
				c0.9,1.8,1.3,3.9,1.3,6.3v0.5c0,2.4-0.4,4.5-1.3,6.3c-0.9,1.8-2.2,3.2-3.8,4.3S135.3,68.3,133,68.3z M133,63.7
				c1.2,0,2.1-0.3,2.9-0.9c0.8-0.6,1.3-1.5,1.7-2.6c0.4-1.1,0.5-2.4,0.5-3.9v-0.5c0-1.5-0.2-2.8-0.5-3.9c-0.4-1.1-0.9-2-1.7-2.6
				c-0.8-0.6-1.7-1-2.9-1s-2.1,0.3-2.9,1c-0.8,0.6-1.3,1.5-1.7,2.6s-0.5,2.4-0.5,3.9v0.5c0,1.5,0.2,2.8,0.5,3.9s0.9,2,1.7,2.6
				C130.9,63.3,131.8,63.7,133,63.7z"/>
		</g>
		<g>
			<path class="st0" d="M157.2,68.3c-2.5,0-4.5-0.8-5.9-2.4c-1.4-1.6-2.1-4.1-2.1-7.5V48.3l-2.6-0.7V44h2.6h6v14.4
				c0,1.9,0.3,3.2,0.9,4c0.6,0.8,1.6,1.2,2.9,1.2c1.1,0,2-0.2,2.8-0.6s1.4-1,1.9-1.8V48.3l-2.9-0.7V44h2.9h6v19.5l2.8,0.7v3.6h-8.1
				l-0.4-3.1c-0.7,1.2-1.7,2-2.8,2.7C159.9,67.9,158.6,68.3,157.2,68.3z"/>
		</g>
		<g>
			<path class="st0" d="M185,68.3c-1.7,0-3.4-0.2-4.9-0.5c-1.5-0.3-3-0.8-4.4-1.5l-0.1-6.5h4.2l0.8,3.4c0.6,0.3,1.2,0.5,1.8,0.6
				c0.6,0.1,1.3,0.2,2.1,0.2c1.5,0,2.6-0.3,3.2-0.8c0.6-0.5,0.9-1.1,0.9-1.9c0-0.7-0.3-1.4-1-1.9c-0.7-0.5-1.9-1-3.8-1.4
				c-2.8-0.6-4.9-1.5-6.2-2.7c-1.3-1.2-2-2.8-2-4.6c0-1.3,0.3-2.5,1-3.6c0.7-1.1,1.7-1.9,3.1-2.6c1.4-0.7,3.1-1,5.1-1
				c1.8,0,3.4,0.2,4.9,0.5c1.4,0.4,2.7,0.8,3.7,1.4l0.1,6.3h-4.2l-0.7-3.1c-0.4-0.3-0.9-0.5-1.5-0.7c-0.6-0.2-1.2-0.3-1.9-0.3
				c-1.2,0-2.1,0.2-2.7,0.7c-0.7,0.5-1,1.1-1,1.9c0,0.4,0.1,0.8,0.3,1.2s0.6,0.7,1.3,1c0.6,0.3,1.6,0.6,2.8,0.9
				c3,0.7,5.2,1.6,6.5,2.7c1.3,1.1,2,2.7,2,4.7c0,2.2-0.8,3.9-2.4,5.3C190.5,67.6,188.2,68.3,185,68.3z"/>
		</g>
		<g>
			<path class="st0" d="M208.8,68.3c-2.3,0-4.2-0.5-5.9-1.5c-1.7-1-3-2.4-3.9-4.2c-0.9-1.8-1.4-3.8-1.4-6.1v-0.9
				c0-2.3,0.4-4.4,1.3-6.2c0.9-1.8,2.1-3.3,3.7-4.3c1.6-1,3.4-1.5,5.5-1.5c2.2,0,4,0.4,5.4,1.3c1.5,0.9,2.6,2.1,3.3,3.7
				c0.7,1.6,1.1,3.5,1.1,5.8v3.3h-14.3l0,0.1c0.1,1.1,0.3,2.2,0.8,3c0.5,0.9,1.1,1.6,1.9,2.1c0.8,0.5,1.8,0.8,3,0.8
				c1.2,0,2.4-0.2,3.4-0.5c1-0.3,2-0.8,3-1.4l1.7,3.7c-1,0.8-2.2,1.5-3.6,2S210.7,68.3,208.8,68.3z M203.9,53.6h8.6V53
				c0-1-0.1-1.9-0.4-2.6c-0.3-0.7-0.7-1.3-1.4-1.7c-0.6-0.4-1.4-0.6-2.4-0.6c-0.9,0-1.6,0.2-2.3,0.7c-0.6,0.5-1.1,1.1-1.5,1.9
				c-0.4,0.8-0.6,1.7-0.7,2.8L203.9,53.6z"/>
		</g>
		<g>
			<path class="st0" d="M241.5,68.3c-2.3,0-4.3-0.5-6-1.5s-2.9-2.4-3.8-4.3c-0.9-1.8-1.3-3.9-1.3-6.3v-0.5c0-2.4,0.4-4.4,1.3-6.3
				s2.2-3.2,3.8-4.3s3.6-1.6,5.9-1.6c2.3,0,4.3,0.5,6,1.5c1.7,1,2.9,2.5,3.8,4.3c0.9,1.8,1.3,3.9,1.3,6.3v0.5c0,2.4-0.4,4.5-1.3,6.3
				c-0.9,1.8-2.2,3.2-3.8,4.3S243.8,68.3,241.5,68.3z M241.5,63.7c1.2,0,2.1-0.3,2.9-0.9c0.8-0.6,1.3-1.5,1.7-2.6
				c0.4-1.1,0.5-2.4,0.5-3.9v-0.5c0-1.5-0.2-2.8-0.5-3.9c-0.4-1.1-0.9-2-1.7-2.6c-0.8-0.6-1.7-1-2.9-1s-2.1,0.3-2.9,1
				c-0.8,0.6-1.3,1.5-1.7,2.6s-0.5,2.4-0.5,3.9v0.5c0,1.5,0.2,2.8,0.5,3.9s0.9,2,1.7,2.6C239.3,63.3,240.3,63.7,241.5,63.7z"/>
		</g>
		<g>
			<path class="st0" d="M255.8,68.3v-3.6L259,64V48.7h-3.6v-4.2h3.6v-2.7c0-2.7,0.7-4.7,2.2-6.1c1.5-1.4,3.6-2.1,6.3-2.1
				c0.6,0,1.3,0.1,2,0.2c0.7,0.1,1.4,0.2,1.9,0.4l-0.5,4.5c-0.3-0.1-0.7-0.2-1.2-0.2c-0.5-0.1-0.9-0.1-1.4-0.1c-1.1,0-2,0.3-2.5,0.9
				c-0.6,0.6-0.8,1.5-0.8,2.6v2.7h5.3v4.2H265V64l4.2,0.7v3.6H255.8z"/>
		</g>
		<g>
			<path class="st0" d="M283.7,68.3v-3.6l3.5-0.7V40.5l-3.5-0.7v-3.6h3.5h10.7c3.7,0,6.5,0.7,8.6,2.2c2.1,1.5,3.1,3.6,3.1,6.6
				c0,1.5-0.4,2.8-1.2,3.9c-0.8,1.2-2,2-3.4,2.6c1.3,0.3,2.3,0.8,3.2,1.5c0.9,0.7,1.5,1.6,2,2.6c0.4,1,0.7,2.1,0.7,3.4
				c0,3-1,5.3-3,6.9c-2,1.6-4.8,2.4-8.4,2.4H283.7z M293.1,49.7h5.1c1.7,0,3-0.4,3.9-1.1c0.9-0.7,1.4-1.8,1.4-3.2
				c0-1.5-0.5-2.7-1.4-3.4s-2.4-1.1-4.3-1.1h-4.7V49.7z M293.1,63.7h6.2c1.8,0,3.1-0.4,4-1.2c0.9-0.8,1.4-1.9,1.4-3.5
				c0-1.1-0.2-2-0.5-2.8c-0.3-0.8-0.9-1.3-1.6-1.7c-0.7-0.4-1.7-0.6-2.8-0.6h-6.7V63.7z"/>
		</g>
		<g>
			<path class="st0" d="M324.5,68.3c-2.3,0-4.3-0.5-6-1.5s-2.9-2.4-3.8-4.3c-0.9-1.8-1.3-3.9-1.3-6.3v-0.5c0-2.4,0.4-4.4,1.3-6.3
				s2.2-3.2,3.8-4.3s3.6-1.6,5.9-1.6c2.3,0,4.3,0.5,6,1.5c1.7,1,2.9,2.5,3.8,4.3c0.9,1.8,1.3,3.9,1.3,6.3v0.5c0,2.4-0.4,4.5-1.3,6.3
				c-0.9,1.8-2.2,3.2-3.8,4.3S326.7,68.3,324.5,68.3z M324.5,63.7c1.2,0,2.1-0.3,2.9-0.9c0.8-0.6,1.3-1.5,1.7-2.6
				c0.4-1.1,0.5-2.4,0.5-3.9v-0.5c0-1.5-0.2-2.8-0.5-3.9c-0.4-1.1-0.9-2-1.7-2.6c-0.8-0.6-1.7-1-2.9-1s-2.1,0.3-2.9,1
				c-0.8,0.6-1.3,1.5-1.7,2.6s-0.5,2.4-0.5,3.9v0.5c0,1.5,0.2,2.8,0.5,3.9s0.9,2,1.7,2.6C322.3,63.3,323.3,63.7,324.5,63.7z"/>
		</g>
		<g>
			<path class="st0" d="M338.3,68.3v-3.6l3.2-0.7V48.8l-3.4-0.7v-3.6h9l0.3,3.4c0.8-1.2,1.8-2.2,3-2.8c1.2-0.7,2.5-1,4-1
				c2.4,0,4.3,0.8,5.6,2.3c1.4,1.5,2,3.9,2,7.1V64l3.2,0.7v3.6H353v-3.6l2.9-0.7V53.4c0-1.7-0.3-2.9-1-3.6c-0.7-0.7-1.7-1.1-3-1.1
				c-1,0-1.9,0.2-2.6,0.6c-0.7,0.4-1.4,1-1.8,1.8V64l2.8,0.7v3.6H338.3z"/>
		</g>
		<g>
			<path class="st0" d="M376.5,68.3c-2.5,0-4.5-0.8-5.9-2.4c-1.4-1.6-2.1-4.1-2.1-7.5V48.3l-2.6-0.7V44h2.6h6v14.4
				c0,1.9,0.3,3.2,0.9,4c0.6,0.8,1.6,1.2,2.9,1.2c1.1,0,2-0.2,2.8-0.6s1.4-1,1.9-1.8V48.3l-2.9-0.7V44h2.9h6v19.5l2.8,0.7v3.6h-8.1
				l-0.4-3.1c-0.7,1.2-1.7,2-2.8,2.7C379.3,67.9,378,68.3,376.5,68.3z"/>
		</g>
		<g>
			<path class="st0" d="M404.3,68.3c-1.7,0-3.4-0.2-4.9-0.5c-1.5-0.3-3-0.8-4.4-1.5l-0.1-6.5h4.2l0.8,3.4c0.6,0.3,1.2,0.5,1.8,0.6
				c0.6,0.1,1.3,0.2,2.1,0.2c1.5,0,2.6-0.3,3.2-0.8c0.6-0.5,0.9-1.1,0.9-1.9c0-0.7-0.3-1.4-1-1.9c-0.7-0.5-1.9-1-3.8-1.4
				c-2.8-0.6-4.9-1.5-6.2-2.7c-1.3-1.2-2-2.8-2-4.6c0-1.3,0.3-2.5,1-3.6c0.7-1.1,1.7-1.9,3.1-2.6c1.4-0.7,3.1-1,5.1-1
				c1.8,0,3.4,0.2,4.9,0.5c1.4,0.4,2.7,0.8,3.7,1.4l0.1,6.3h-4.2l-0.7-3.1c-0.4-0.3-0.9-0.5-1.5-0.7c-0.6-0.2-1.2-0.3-1.9-0.3
				c-1.2,0-2.1,0.2-2.7,0.7c-0.7,0.5-1,1.1-1,1.9c0,0.4,0.1,0.8,0.3,1.2s0.6,0.7,1.3,1c0.6,0.3,1.6,0.6,2.8,0.9
				c3,0.7,5.2,1.6,6.5,2.7c1.3,1.1,2,2.7,2,4.7c0,2.2-0.8,3.9-2.4,5.3C409.9,67.6,407.5,68.3,404.3,68.3z"/>
		</g>
	</g>
</g>
</svg>
