<?xml version="1.0" encoding="utf-8"?>
<!-- Generator: Adobe Illustrator 24.1.0, SVG Export Plug-In . SVG Version: 6.00 Build 0)  -->
<svg version="1.1" id="Layer_1" xmlns="http://www.w3.org/2000/svg" xmlns:xlink="http://www.w3.org/1999/xlink" x="0px" y="0px"
	 viewBox="0 0 256 256" style="enable-background:new 0 0 256 256;" xml:space="preserve">
<g id="Layer_1_1_">
</g>
<g id="Layer_2_1_">
	<g>
		<path d="M129.1,37.9L54,93.1v106.4h49c2.7,0,4.9-2,4.9-4.5s-2.2-4.5-4.9-4.5H63.7v-93l65.4-48l65.4,48v92.9h-58.6v-15.6
			c8.6-0.2,15.4-2,20.3-5.5c5-3.7,7.6-9.1,7.6-16.2c0-2.8-0.6-5.5-1.7-7.9c-1.1-2.4-2.8-4.4-5-6.1c-2.2-1.7-4.9-2.8-8.1-3.5
			l-1.9-0.4l1.8-0.6c3.7-1.3,6.7-3.4,8.7-6.1c2-2.7,3.1-5.8,3.1-9.2c0-6.8-2.6-12-7.8-15.4c-4.3-2.8-9.9-4.4-17-5v-16
			c0-2.5-2.2-4.5-4.9-4.5s-4.9,2-4.9,4.5v15.9H94.4v7.8l9,1.6v57.5l-9,1.6v7.7h31.8v24.6h78V93.1L129.1,37.9z M148,146.2
			c0.9,1.9,1.4,4.2,1.4,6.9c0,3.8-1.3,6.8-3.8,8.8c-2.3,1.8-5.5,2.8-9.6,3v-24.6h0.1c3,0,5.6,0.5,7.5,1.5
			C145.5,142.7,147,144.2,148,146.2z M142.2,111.5c2.7,1.9,4,4.8,4,8.7c0,3.5-1.3,6.3-3.9,8.2c-1.7,1.3-3.9,2.1-6.5,2.5v-21.7
			C138.5,109.6,140.6,110.4,142.2,111.5z M117.8,108.7h8.4v22.4h-8.4C117.8,131.1,117.8,108.7,117.8,108.7z M117.8,164.8v-24.6h8.4
			v24.6H117.8z"/>
	</g>
</g>
</svg>
