<?xml version="1.0" encoding="utf-8"?>
<!-- Generator: Adobe Illustrator 24.1.0, SVG Export Plug-In . SVG Version: 6.00 Build 0)  -->
<svg version="1.1" id="Layer_1" xmlns="http://www.w3.org/2000/svg" xmlns:xlink="http://www.w3.org/1999/xlink" x="0px" y="0px"
	 viewBox="0 0 305 114" style="enable-background:new 0 0 305 114;" xml:space="preserve">
<style type="text/css">
	.st0{fill:#0DF76C;}
</style>
<g>
	<g>
		<g>
			<path class="st0" d="M51.6,0.1L0.1,38.8v74.6h33.6c1.8,0,3.3-1.4,3.3-3.2c0-1.8-1.5-3.2-3.3-3.2H6.8V41.9L51.6,8.2l44.8,33.7V107
				H56.3V96.1c5.9-0.1,10.6-1.4,13.9-3.9c3.5-2.6,5.2-6.4,5.2-11.4c0-2-0.4-3.9-1.2-5.5c-0.8-1.7-1.9-3.1-3.4-4.3
				c-1.5-1.2-3.4-2-5.6-2.4l-1.3-0.3l1.2-0.5c2.6-0.9,4.6-2.4,6-4.2c1.4-1.9,2.1-4.1,2.1-6.4c0-4.8-1.8-8.4-5.4-10.8
				c-2.9-1.9-6.8-3.1-11.6-3.5V31.6c0-1.8-1.5-3.2-3.3-3.2c-1.8,0-3.3,1.4-3.3,3.2v11.1H27.9v5.4l6.2,1.1v40.3l-6.2,1.1v5.4h21.8
				v17.3h53.5V38.8L51.6,0.1z M64.6,76c0.6,1.3,1,2.9,1,4.8c0,2.7-0.9,4.8-2.6,6.2c-1.6,1.3-3.8,2-6.6,2.1V71.8h0.1
				c2.1,0,3.8,0.4,5.2,1.1C62.9,73.6,63.9,74.6,64.6,76z M60.6,51.7c1.8,1.3,2.7,3.4,2.7,6.1c0,2.5-0.9,4.4-2.6,5.7
				c-1.2,0.9-2.7,1.5-4.5,1.8V50C58.1,50.3,59.5,50.9,60.6,51.7z M43.9,49.7h5.7v15.7h-5.7V49.7z M43.9,89.1V71.8h5.7v17.2H43.9z"/>
		</g>
	</g>
	<g>
		<g>
			<path d="M121.2,69.5v-3.6l3.5-0.7V41.7l-3.5-0.7v-3.6h12.9v3.6l-3.5,0.7v9.6h13.5v-9.6l-3.4-0.7v-3.6h3.4h6h3.5v3.6l-3.5,0.7
				v23.4l3.5,0.7v3.6h-12.9v-3.6l3.4-0.7V56h-13.5v9.2l3.5,0.7v3.6H121.2z"/>
		</g>
		<g>
			<path d="M167.6,69.9c-2.3,0-4.3-0.5-6-1.5s-2.9-2.4-3.8-4.3c-0.9-1.8-1.3-3.9-1.3-6.3v-0.5c0-2.4,0.4-4.4,1.3-6.3
				s2.2-3.2,3.8-4.3s3.6-1.6,5.9-1.6c2.3,0,4.3,0.5,6,1.5c1.7,1,2.9,2.5,3.8,4.3c0.9,1.8,1.3,3.9,1.3,6.3v0.5c0,2.4-0.4,4.5-1.3,6.3
				c-0.9,1.8-2.2,3.2-3.8,4.3S169.9,69.9,167.6,69.9z M167.6,65.3c1.2,0,2.1-0.3,2.9-0.9c0.8-0.6,1.3-1.5,1.7-2.6
				c0.4-1.1,0.5-2.4,0.5-3.9v-0.5c0-1.5-0.2-2.8-0.5-3.9c-0.4-1.1-0.9-2-1.7-2.6c-0.8-0.6-1.7-1-2.9-1s-2.1,0.3-2.9,1
				c-0.8,0.6-1.3,1.5-1.7,2.6s-0.5,2.4-0.5,3.9v0.5c0,1.5,0.2,2.8,0.5,3.9s0.9,2,1.7,2.6C165.4,65,166.4,65.3,167.6,65.3z"/>
		</g>
		<g>
			<path d="M191.7,69.9c-2.5,0-4.5-0.8-5.9-2.4c-1.4-1.6-2.1-4.1-2.1-7.5V50l-2.6-0.7v-3.6h2.6h6v14.4c0,1.9,0.3,3.2,0.9,4
				c0.6,0.8,1.6,1.2,2.9,1.2c1.1,0,2-0.2,2.8-0.6s1.4-1,1.9-1.8V50l-2.9-0.7v-3.6h2.9h6v19.5l2.8,0.7v3.6h-8.1l-0.4-3.1
				c-0.7,1.2-1.7,2-2.8,2.7C194.5,69.6,193.2,69.9,191.7,69.9z"/>
		</g>
		<g>
			<path d="M219.5,69.9c-1.7,0-3.4-0.2-4.9-0.5c-1.5-0.3-3-0.8-4.4-1.5l-0.1-6.5h4.2l0.8,3.4c0.6,0.3,1.2,0.5,1.8,0.6
				c0.6,0.1,1.3,0.2,2.1,0.2c1.5,0,2.6-0.3,3.2-0.8c0.6-0.5,0.9-1.1,0.9-1.9c0-0.7-0.3-1.4-1-1.9c-0.7-0.5-1.9-1-3.8-1.4
				c-2.8-0.6-4.9-1.5-6.2-2.7c-1.3-1.2-2-2.8-2-4.6c0-1.3,0.3-2.5,1-3.6c0.7-1.1,1.7-1.9,3.1-2.6c1.4-0.7,3.1-1,5.1-1
				c1.8,0,3.4,0.2,4.9,0.5c1.4,0.4,2.7,0.8,3.7,1.4l0.1,6.3h-4.2l-0.7-3.1c-0.4-0.3-0.9-0.5-1.5-0.7c-0.6-0.2-1.2-0.3-1.9-0.3
				c-1.2,0-2.1,0.2-2.7,0.7c-0.7,0.5-1,1.1-1,1.9c0,0.4,0.1,0.8,0.3,1.2s0.6,0.7,1.3,1c0.6,0.3,1.6,0.6,2.8,0.9
				c3,0.7,5.2,1.6,6.5,2.7c1.3,1.1,2,2.7,2,4.7c0,2.2-0.8,3.9-2.4,5.3C225.1,69.2,222.7,69.9,219.5,69.9z"/>
		</g>
		<g>
			<path d="M243.4,69.9c-2.3,0-4.2-0.5-5.9-1.5c-1.7-1-3-2.4-3.9-4.2c-0.9-1.8-1.4-3.8-1.4-6.1v-0.9c0-2.3,0.4-4.4,1.3-6.2
				c0.9-1.8,2.1-3.3,3.7-4.3c1.6-1,3.4-1.5,5.5-1.5c2.2,0,4,0.4,5.4,1.3c1.5,0.9,2.6,2.1,3.3,3.7c0.7,1.6,1.1,3.5,1.1,5.8v3.3h-14.3
				l0,0.1c0.1,1.1,0.3,2.2,0.8,3c0.5,0.9,1.1,1.6,1.9,2.1c0.8,0.5,1.8,0.8,3,0.8c1.2,0,2.4-0.2,3.4-0.5c1-0.3,2-0.8,3-1.4l1.7,3.7
				c-1,0.8-2.2,1.5-3.6,2S245.3,69.9,243.4,69.9z M238.4,55.2h8.6v-0.6c0-1-0.1-1.9-0.4-2.6c-0.3-0.7-0.7-1.3-1.4-1.7
				c-0.6-0.4-1.4-0.6-2.4-0.6c-0.9,0-1.6,0.2-2.3,0.7c-0.6,0.5-1.1,1.1-1.5,1.9c-0.4,0.8-0.6,1.7-0.7,2.8L238.4,55.2z"/>
		</g>
		<g>
			<path d="M132.5,113.9c-2.3,0-4.3-0.5-6-1.5s-2.9-2.4-3.8-4.3c-0.9-1.8-1.3-3.9-1.3-6.3v-0.5c0-2.4,0.4-4.4,1.3-6.3
				s2.2-3.2,3.8-4.3s3.6-1.6,5.9-1.6c2.3,0,4.3,0.5,6,1.5c1.7,1,2.9,2.5,3.8,4.3c0.9,1.8,1.3,3.9,1.3,6.3v0.5c0,2.4-0.4,4.5-1.3,6.3
				c-0.9,1.8-2.2,3.2-3.8,4.3S134.8,113.9,132.5,113.9z M132.5,109.3c1.2,0,2.1-0.3,2.9-0.9c0.8-0.6,1.3-1.5,1.7-2.6
				c0.4-1.1,0.5-2.4,0.5-3.9v-0.5c0-1.5-0.2-2.8-0.5-3.9c-0.4-1.1-0.9-2-1.7-2.6c-0.8-0.6-1.7-1-2.9-1s-2.1,0.3-2.9,1
				c-0.8,0.6-1.3,1.5-1.7,2.6s-0.5,2.4-0.5,3.9v0.5c0,1.5,0.2,2.8,0.5,3.9s0.9,2,1.7,2.6C130.4,109,131.3,109.3,132.5,109.3z"/>
		</g>
		<g>
			<path d="M146.8,113.5v-3.6l3.2-0.7V93.9h-3.6v-4.2h3.6V87c0-2.7,0.7-4.7,2.2-6.1c1.5-1.4,3.6-2.1,6.3-2.1c0.6,0,1.3,0.1,2,0.2
				c0.7,0.1,1.4,0.2,1.9,0.4l-0.5,4.5c-0.3-0.1-0.7-0.2-1.2-0.2c-0.5-0.1-0.9-0.1-1.4-0.1c-1.1,0-2,0.3-2.5,0.9
				c-0.6,0.6-0.8,1.5-0.8,2.6v2.7h5.3v4.2H156v15.3l4.2,0.7v3.6H146.8z"/>
		</g>
		<g>
			<path class="st0" d="M174.7,113.5v-3.6l3.5-0.7V85.7l-3.5-0.7v-3.6h3.5h10.7c3.7,0,6.5,0.7,8.6,2.2c2.1,1.5,3.1,3.6,3.1,6.6
				c0,1.5-0.4,2.8-1.2,3.9c-0.8,1.2-2,2-3.4,2.6c1.3,0.3,2.3,0.8,3.2,1.5c0.9,0.7,1.5,1.6,2,2.6c0.4,1,0.7,2.1,0.7,3.4
				c0,3-1,5.3-3,6.9c-2,1.6-4.8,2.4-8.4,2.4H174.7z M184.1,94.9h5.1c1.7,0,3-0.4,3.9-1.1c0.9-0.7,1.4-1.8,1.4-3.2
				c0-1.5-0.5-2.7-1.4-3.4s-2.4-1.1-4.3-1.1h-4.7V94.9z M184.1,108.9h6.2c1.8,0,3.1-0.4,4-1.2c0.9-0.8,1.4-1.9,1.4-3.5
				c0-1.1-0.2-2-0.5-2.8c-0.3-0.8-0.9-1.3-1.6-1.7c-0.7-0.4-1.7-0.6-2.8-0.6h-6.7V108.9z"/>
		</g>
		<g>
			<path class="st0" d="M215.5,113.9c-2.3,0-4.3-0.5-6-1.5s-2.9-2.4-3.8-4.3c-0.9-1.8-1.3-3.9-1.3-6.3v-0.5c0-2.4,0.4-4.4,1.3-6.3
				s2.2-3.2,3.8-4.3s3.6-1.6,5.9-1.6c2.3,0,4.3,0.5,6,1.5c1.7,1,2.9,2.5,3.8,4.3c0.9,1.8,1.3,3.9,1.3,6.3v0.5c0,2.4-0.4,4.5-1.3,6.3
				c-0.9,1.8-2.2,3.2-3.8,4.3S217.8,113.9,215.5,113.9z M215.5,109.3c1.2,0,2.1-0.3,2.9-0.9c0.8-0.6,1.3-1.5,1.7-2.6
				c0.4-1.1,0.5-2.4,0.5-3.9v-0.5c0-1.5-0.2-2.8-0.5-3.9c-0.4-1.1-0.9-2-1.7-2.6c-0.8-0.6-1.7-1-2.9-1s-2.1,0.3-2.9,1
				c-0.8,0.6-1.3,1.5-1.7,2.6s-0.5,2.4-0.5,3.9v0.5c0,1.5,0.2,2.8,0.5,3.9s0.9,2,1.7,2.6C213.3,109,214.3,109.3,215.5,109.3z"/>
		</g>
		<g>
			<path class="st0" d="M229.3,113.5v-3.6l3.2-0.7V94l-3.4-0.7v-3.6h9l0.3,3.4c0.8-1.2,1.8-2.2,3-2.8c1.2-0.7,2.5-1,4-1
				c2.4,0,4.3,0.8,5.6,2.3c1.4,1.5,2,3.9,2,7.1v10.6l3.2,0.7v3.6H244v-3.6l2.9-0.7V98.6c0-1.7-0.3-2.9-1-3.6c-0.7-0.7-1.7-1.1-3-1.1
				c-1,0-1.9,0.2-2.6,0.6c-0.7,0.4-1.4,1-1.8,1.8v12.8l2.8,0.7v3.6H229.3z"/>
		</g>
		<g>
			<path class="st0" d="M267.6,113.9c-2.5,0-4.5-0.8-5.9-2.4c-1.4-1.6-2.1-4.1-2.1-7.5V94l-2.6-0.7v-3.6h2.6h6v14.4
				c0,1.9,0.3,3.2,0.9,4c0.6,0.8,1.6,1.2,2.9,1.2c1.1,0,2-0.2,2.8-0.6s1.4-1,1.9-1.8V94l-2.9-0.7v-3.6h2.9h6v19.5l2.8,0.7v3.6h-8.1
				l-0.4-3.1c-0.7,1.2-1.7,2-2.8,2.7C270.3,113.6,269,113.9,267.6,113.9z"/>
		</g>
		<g>
			<path class="st0" d="M295.3,113.9c-1.7,0-3.4-0.2-4.9-0.5c-1.5-0.3-3-0.8-4.4-1.5l-0.1-6.5h4.2l0.8,3.4c0.6,0.3,1.2,0.5,1.8,0.6
				c0.6,0.1,1.3,0.2,2.1,0.2c1.5,0,2.6-0.3,3.2-0.8c0.6-0.5,0.9-1.1,0.9-1.9c0-0.7-0.3-1.4-1-1.9c-0.7-0.5-1.9-1-3.8-1.4
				c-2.8-0.6-4.9-1.5-6.2-2.7c-1.3-1.2-2-2.8-2-4.6c0-1.3,0.3-2.5,1-3.6c0.7-1.1,1.7-1.9,3.1-2.6c1.4-0.7,3.1-1,5.1-1
				c1.8,0,3.4,0.2,4.9,0.5c1.4,0.4,2.7,0.8,3.7,1.4l0.1,6.3h-4.2l-0.7-3.1c-0.4-0.3-0.9-0.5-1.5-0.7c-0.6-0.2-1.2-0.3-1.9-0.3
				c-1.2,0-2.1,0.2-2.7,0.7c-0.7,0.5-1,1.1-1,1.9c0,0.4,0.1,0.8,0.3,1.2s0.6,0.7,1.3,1c0.6,0.3,1.6,0.6,2.8,0.9
				c3,0.7,5.2,1.6,6.5,2.7c1.3,1.1,2,2.7,2,4.7c0,2.2-0.8,3.9-2.4,5.3C300.9,113.2,298.5,113.9,295.3,113.9z"/>
		</g>
	</g>
</g>
</svg>
